<svg width="171" height="36" viewBox="0 0 171 36" fill="none" xmlns="http://www.w3.org/2000/svg">
<path d="M59.1584 13.2246H60.9123L65.6342 23.9779H63.6105L62.5312 21.4398H57.472L56.3927 23.9779H54.4365L59.1584 13.2246ZM61.8566 19.7701L60.0353 15.4955L58.214 19.7701H61.8566Z" fill="white"/>
<path d="M78.586 13.3579H83.3754C85.8712 13.3579 87.3552 14.6937 87.3552 16.7642C87.3552 18.5008 86.2759 19.5694 84.7919 19.9702L87.6925 23.9776H85.4665L82.7683 20.2373H80.4073V23.9776H78.5186V13.3579H78.586ZM83.2404 18.6343C84.5896 18.6343 85.4665 17.9664 85.4665 16.831C85.4665 15.6956 84.657 15.0945 83.2404 15.0945H80.4748V18.7011H83.2404V18.6343Z" fill="white"/>
<path d="M100.239 18.6345C100.239 15.629 102.533 13.1577 105.771 13.1577C107.659 13.1577 108.806 13.692 109.885 14.6271L108.671 16.0297C107.862 15.3618 107.052 14.8943 105.636 14.8943C103.679 14.8943 102.128 16.6308 102.128 18.7013C102.128 20.9054 103.612 22.5084 105.771 22.5084C106.782 22.5084 107.727 22.1744 108.334 21.7069V19.7032H105.568V18.0334H110.155V22.5084C109.076 23.3766 107.592 24.1781 105.636 24.1781C102.465 24.1781 100.239 21.7737 100.239 18.6345Z" fill="white"/>
<path d="M123.916 13.3579H125.805V23.9776H123.916V13.3579Z" fill="white"/>
<path d="M139.768 13.3579H141.521L147.255 20.7048V13.3579H149.144V23.9776H147.592L141.656 16.4303V23.9776H139.768V13.3579Z" fill="white"/>
<path d="M162.973 13.3579H170.932V15.0277H164.861V17.7661H170.258V19.4358H164.861V22.3078H171V23.9776H162.973V13.3579Z" fill="white"/>
<path d="M9.30888 19.9702L0 35.9999L20.9787 25.6474L9.30888 19.9702Z" fill="url(#paint0_linear)"/>
<path d="M20.9785 25.6474L41.9572 35.9999L32.6483 19.9702L20.9785 25.6474Z" fill="url(#paint1_linear)"/>
<path d="M20.9784 25.6475L32.6482 19.9703L20.9784 0L9.30859 19.9703L20.9784 25.6475Z" fill="url(#paint2_linear)"/>
<defs>
<linearGradient id="paint0_linear" x1="2.35305" y1="37.9282" x2="15.9796" y2="21.5269" gradientUnits="userSpaceOnUse">
<stop stop-color="#65C4F0"/>
<stop offset="0.1964" stop-color="#61BCE9"/>
<stop offset="0.5008" stop-color="#55A6D4"/>
<stop offset="0.8732" stop-color="#4183B3"/>
<stop offset="1" stop-color="#3A75A6"/>
</linearGradient>
<linearGradient id="paint1_linear" x1="22.14" y1="22.5111" x2="43.953" y2="30.5295" gradientUnits="userSpaceOnUse">
<stop offset="0.1582" stop-color="#F9E700"/>
<stop offset="0.9641" stop-color="#F79C63"/>
</linearGradient>
<linearGradient id="paint2_linear" x1="19.1212" y1="25.0099" x2="27.3115" y2="2.28328" gradientUnits="userSpaceOnUse">
<stop stop-color="#BCD431"/>
<stop offset="0.1112" stop-color="#ADD142"/>
<stop offset="0.3313" stop-color="#84C86E"/>
<stop offset="0.636" stop-color="#44B9B4"/>
<stop offset="0.933" stop-color="#00AAFF"/>
</linearGradient>
</defs>
</svg>
